<?xml version="1.0" encoding="UTF-8"?>
<svg version="1.1" xmlns="http://www.w3.org/2000/svg" width="68" height="68">
<path d="M0 0 C2.31 0 4.62 0 7 0 C7.3403125 1.175625 7.3403125 1.175625 7.6875 2.375 C9.36163042 5.72326083 10.57595327 5.7259361 14 7 C20.28865249 12.39027356 22.24629943 17.6776191 22.95385742 25.71826172 C23.0695105 27.28084717 23.0695105 27.28084717 23.1875 28.875 C23.455625 32.21625 23.72375 35.5575 24 39 C10.47 39 -3.06 39 -17 39 C-16.62875 34.05 -16.62875 34.05 -16.25 29 C-16.18200195 27.97648437 -16.11400391 26.95296875 -16.04394531 25.8984375 C-15.41998673 18.60292179 -13.83867566 12.76770877 -8.5 7.5625 C-6 6 -6 6 -3.8125 5.5625 C-3.214375 5.376875 -2.61625 5.19125 -2 5 C-0.70339566 2.50965614 -0.70339566 2.50965614 0 0 Z " fill="#FFFFFF" transform="translate(31,7)"/>
<path d="M0 0 C0.86825912 0.00222061 1.73651825 0.00444122 2.63108826 0.00672913 C3.61202957 0.00680466 4.59297089 0.00688019 5.6036377 0.00695801 C6.6702916 0.01211929 7.7369455 0.01728058 8.83592224 0.02259827 C9.92211349 0.02401321 11.00830475 0.02542816 12.12741089 0.02688599 C15.61230674 0.03250403 19.09713941 0.04505959 22.58201599 0.05775452 C24.93813486 0.06276719 27.29425473 0.0673305 29.65037537 0.07142639 C35.44011063 0.08247933 41.2298088 0.09923501 47.01951599 0.12025452 C47.40170366 1.77640109 47.73346701 3.44482476 48.01951599 5.12025452 C47.01951599 6.12025452 47.01951599 6.12025452 43.20310974 6.21791077 C41.62104917 6.21123541 40.0390044 6.19927327 38.45701599 6.18275452 C37.6507074 6.1782428 36.8443988 6.17373108 36.01365662 6.16908264 C34.01557843 6.15725969 32.01753816 6.13932366 30.01951599 6.12025452 C30.06076599 6.89627014 30.10201599 7.67228577 30.14451599 8.47181702 C30.01951599 11.12025452 30.01951599 11.12025452 28.01951599 13.49525452 C23.76276043 15.80099711 21.68866517 15.26840596 17.01951599 14.12025452 C15.01951599 11.12025452 15.01951599 11.12025452 15.01951599 6.12025452 C9.40951599 6.12025452 3.79951599 6.12025452 -1.98048401 6.12025452 C-2.31048401 4.47025452 -2.64048401 2.82025452 -2.98048401 1.12025452 C-1.98048401 0.12025452 -1.98048401 0.12025452 0 0 Z " fill="#FFFFFF" transform="translate(11.980484008789063,48.87974548339844)"/>
</svg>
