<?xml version="1.0" encoding="UTF-8"?>
<svg version="1.1" xmlns="http://www.w3.org/2000/svg" width="124" height="124">
<path d="M0 0 C1.13477028 -0.00361794 1.13477028 -0.00361794 2.29246521 -0.00730896 C3.8834256 -0.00633411 5.47442144 0.00697294 7.06518555 0.03198242 C9.49320085 0.06636528 11.9175859 0.05260841 14.34570312 0.03320312 C15.89715082 0.04010067 17.44858918 0.04977225 19 0.0625 C19.72095352 0.05754013 20.44190704 0.05258026 21.18470764 0.04747009 C26.02898506 0.16012438 28.53109301 1.18862227 31.93359375 4.62890625 C33.19731419 7.15634713 33.0538217 8.89270933 33.04711914 11.72119141 C33.04700584 13.31261459 33.04700584 13.31261459 33.04689026 14.93618774 C33.04172897 16.08517548 33.03656769 17.23416321 33.03125 18.41796875 C33.02983505 19.59152924 33.0284201 20.76508972 33.02696228 21.97421265 C33.02135064 25.7341361 33.00879613 29.4940007 32.99609375 33.25390625 C32.99108025 35.79817623 32.98651708 38.34244713 32.98242188 40.88671875 C32.97137743 47.13413478 32.95462793 53.38151631 32.93359375 59.62890625 C35.37281736 59.54189827 37.80837789 59.43504623 40.24609375 59.31640625 C41.2815332 59.28256836 41.2815332 59.28256836 42.33789062 59.24804688 C45.24388012 59.09362231 47.42602568 58.97274269 49.87109375 57.31640625 C51.57539598 54.6095733 51.63817519 51.76034293 51.93359375 48.62890625 C50.98484375 48.67015625 50.03609375 48.71140625 49.05859375 48.75390625 C45.93359375 48.62890625 45.93359375 48.62890625 43.93359375 46.62890625 C43.66796875 44.53515625 43.66796875 44.53515625 43.68359375 42.12890625 C43.67585938 40.9378125 43.67585938 40.9378125 43.66796875 39.72265625 C43.93359375 37.62890625 43.93359375 37.62890625 45.93359375 35.62890625 C49.05859375 35.50390625 49.05859375 35.50390625 51.93359375 35.62890625 C52.03671875 34.68015625 52.13984375 33.73140625 52.24609375 32.75390625 C52.93359375 29.62890625 52.93359375 29.62890625 55.93359375 27.62890625 C59.46040195 27.77585659 61.27879778 27.97411028 63.80859375 30.50390625 C64.93359375 32.62890625 64.93359375 32.62890625 64.93359375 35.62890625 C66.10921875 35.56703125 66.10921875 35.56703125 67.30859375 35.50390625 C69.93359375 35.62890625 69.93359375 35.62890625 71.93359375 37.62890625 C72.12890625 40.01171875 72.12890625 40.01171875 72.05859375 42.75390625 C72.04054688 43.66398437 72.0225 44.5740625 72.00390625 45.51171875 C71.98070313 46.21039063 71.9575 46.9090625 71.93359375 47.62890625 C68.46859375 48.12390625 68.46859375 48.12390625 64.93359375 48.62890625 C65.30352531 52.32822185 65.69071809 55.17400682 67.45385742 58.47631836 C69.07738821 61.93526129 69.30746667 64.15091651 69.296875 67.9453125 C69.2959082 69.7097168 69.2959082 69.7097168 69.29492188 71.50976562 C69.27880859 72.72470703 69.26269531 73.93964844 69.24609375 75.19140625 C69.24931641 76.41021484 69.25253906 77.62902344 69.25585938 78.88476562 C69.19300628 89.30123683 69.19300628 89.30123683 66.93359375 93.62890625 C63.47126881 95.93712288 62.01561059 95.89891614 57.93359375 95.87890625 C56.88171875 95.8840625 55.82984375 95.88921875 54.74609375 95.89453125 C51.93359375 95.62890625 51.93359375 95.62890625 48.93359375 93.62890625 C48.93359375 92.96890625 48.93359375 92.30890625 48.93359375 91.62890625 C47.96534668 91.66556396 46.99709961 91.70222168 45.99951172 91.73999023 C42.38816072 91.86721917 38.77700505 91.94723584 35.1640625 92.01342773 C33.60415277 92.04851277 32.04447134 92.09619707 30.48535156 92.15698242 C17.47341409 92.65136957 17.47341409 92.65136957 13.54003906 90.03955078 C11.87890625 88.1015625 11.87890625 88.1015625 9.93359375 84.62890625 C9.14984375 85.41265625 8.36609375 86.19640625 7.55859375 87.00390625 C2.93359375 91.62890625 2.93359375 91.62890625 -0.32275391 91.85595703 C-1.7086992 91.85564007 -3.09466926 91.84432384 -4.48046875 91.82421875 C-5.21010834 91.82138885 -5.93974792 91.81855896 -6.6914978 91.81564331 C-9.02496653 91.80443627 -11.35805328 91.77933135 -13.69140625 91.75390625 C-15.27212988 91.7438771 -16.85285952 91.73475114 -18.43359375 91.7265625 C-22.31134539 91.7044953 -26.18881103 91.6699624 -30.06640625 91.62890625 C-30.39640625 92.61890625 -30.72640625 93.60890625 -31.06640625 94.62890625 C-33.75747532 95.97444078 -35.93806047 95.83484739 -38.94140625 95.87890625 C-39.99070312 95.9046875 -41.04 95.93046875 -42.12109375 95.95703125 C-45.58235894 95.57142611 -46.69409076 95.16479723 -49.06640625 92.62890625 C-49.44741751 89.86705328 -49.58064268 87.50867706 -49.52734375 84.75 C-49.52642731 83.98212662 -49.52551086 83.21425323 -49.52456665 82.42311096 C-49.51852959 80.80162363 -49.50278016 79.18014752 -49.47802734 77.55883789 C-49.44148862 75.07201239 -49.43700814 72.58667541 -49.4375 70.09960938 C-49.42766993 68.52472666 -49.41601341 66.94985407 -49.40234375 65.375 C-49.4001181 64.62915146 -49.39789246 63.88330292 -49.39559937 63.11485291 C-49.29857017 57.86107017 -49.29857017 57.86107017 -47.06640625 55.62890625 C-44.53847962 55.40335544 -42.15585049 55.30452034 -39.62890625 55.31640625 C-38.60700195 55.29223633 -38.60700195 55.29223633 -37.56445312 55.26757812 C-35.5703125 55.265625 -35.5703125 55.265625 -32.06640625 55.62890625 C-31.45333618 56.36137573 -31.45333618 56.36137573 -30.82788086 57.10864258 C-28.06378484 59.49423176 -24.87367344 59.20219817 -21.37890625 59.31640625 C-20.67701172 59.35056641 -19.97511719 59.38472656 -19.25195312 59.41992188 C-17.52399238 59.50220572 -15.79522553 59.56723865 -14.06640625 59.62890625 C-14.07972992 58.96349319 -14.09305359 58.29808014 -14.10678101 57.61250305 C-14.239537 50.68595716 -14.33002412 43.75977262 -14.39599609 36.83227539 C-14.4261668 34.24716513 -14.46710924 31.66215721 -14.51904297 29.07739258 C-14.59183885 25.3612341 -14.62586145 21.64642891 -14.65234375 17.9296875 C-14.68331146 16.77430984 -14.71427917 15.61893219 -14.7461853 14.42854309 C-14.74939025 6.78549682 -14.74939025 6.78549682 -12.97431946 3.77952576 C-9.2251132 0.18720335 -4.9142119 -0.09062595 0 0 Z " fill="#090909" transform="translate(51.06640625,0.37109375)"/>
<path d="M0 0 C12.87 0 25.74 0 39 0 C39 12.87 39 25.74 39 39 C26.13 39 13.26 39 0 39 C0 26.13 0 13.26 0 0 Z " fill="#E0E3E6" transform="translate(41,21)"/>
<path d="M0 0 C12.87 0 25.74 0 39 0 C39 12.87 39 25.74 39 39 C26.13 39 13.26 39 0 39 C0 26.13 0 13.26 0 0 Z M4 4 C4 14.23 4 24.46 4 35 C14.23 35 24.46 35 35 35 C35 24.77 35 14.54 35 4 C24.77 4 14.54 4 4 4 Z " fill="#66D0ED" transform="translate(41,21)"/>
<path d="M0 0 C5.73309115 5.30794057 11.84275406 13.53711762 13.1875 21.4375 C12.97388516 25.49618195 12.32384001 27.66916265 10 31 C6.32949993 34.23867653 2.86251564 34.46918667 -1.8515625 34.28125 C-4.93603555 33.87746444 -6.6661568 33.05927341 -9 31 C-11.83146761 26.94156309 -12.28108641 24.06688767 -11.57470703 19.19555664 C-10.52643568 15.19083946 -8.28596199 11.96921835 -6 8.5625 C-5.30390625 7.48452148 -5.30390625 7.48452148 -4.59375 6.38476562 C-1.27240566 1.27240566 -1.27240566 1.27240566 0 0 Z " fill="#010303" transform="translate(60,89)"/>
<path d="M0 0 C4.95 0 9.9 0 15 0 C15 7.59 15 15.18 15 23 C10.81659196 23.13816761 6.64115233 23.25741255 2.45727539 23.32958984 C1.0361036 23.35967954 -0.38488372 23.40056404 -1.80541992 23.45263672 C-13.63310086 23.87520185 -13.63310086 23.87520185 -17.07275391 21.67285156 C-20 18.2179784 -20 18.2179784 -20 16 C-19.11957031 15.97421875 -18.23914063 15.9484375 -17.33203125 15.921875 C-15.58986328 15.83679688 -15.58986328 15.83679688 -13.8125 15.75 C-12.66394531 15.70359375 -11.51539062 15.6571875 -10.33203125 15.609375 C-6.39588382 14.88951685 -4.71968155 13.91675993 -2 11 C-0.98198988 8.21874239 -0.98198988 8.21874239 -0.6875 5.25 C-0.460625 3.5175 -0.23375 1.785 0 0 Z " fill="#E4E7EB" transform="translate(84,64)"/>
<path d="M0 0 C4.95 0 9.9 0 15 0 C15.53710938 4.1015625 15.53710938 4.1015625 16.07421875 8.203125 C17.2951679 11.89173087 18.67641856 13.02776486 22 15 C25.33902191 15.69102482 25.33902191 15.69102482 28.8125 15.75 C29.97394531 15.80671875 31.13539062 15.8634375 32.33203125 15.921875 C33.65267578 15.96054688 33.65267578 15.96054688 35 16 C33.47793991 18.62901288 32.15634036 20.84365964 30 23 C27.01904297 23.22705078 27.01904297 23.22705078 23.2421875 23.1953125 C22.57913605 23.1924826 21.91608459 23.18965271 21.23294067 23.18673706 C19.11344417 23.17553435 16.99436896 23.15043051 14.875 23.125 C13.43880818 23.11497028 12.00260975 23.10584441 10.56640625 23.09765625 C7.04397762 23.07729539 3.52246083 23.0381494 0 23 C0 15.41 0 7.82 0 0 Z " fill="#E4E7EB" transform="translate(22,64)"/>
<path d="M0 0 C12.87 0 25.74 0 39 0 C39 8 39 8 37.43945312 10.46679688 C34.15211061 12.53290086 31.84054294 12.51730118 27.96875 12.53125 C27.29581909 12.5350769 26.62288818 12.53890381 25.92956543 12.54284668 C24.5108083 12.5455613 23.09200073 12.53823134 21.67333984 12.52148438 C19.50634797 12.50006275 17.34267049 12.52129538 15.17578125 12.546875 C13.79426354 12.54423164 12.4127479 12.53910647 11.03125 12.53125 C9.77892578 12.52673828 8.52660156 12.52222656 7.23632812 12.51757812 C4 12 4 12 1.56054688 10.46679688 C0 8 0 8 0 0 Z " fill="#8F98A2" transform="translate(41,64)"/>
<path d="M0 0 C0.67293091 -0.0038269 1.34586182 -0.00765381 2.03918457 -0.01159668 C3.4579417 -0.0143113 4.87674927 -0.00698134 6.29541016 0.00976562 C8.46240203 0.03118725 10.62607951 0.00995462 12.79296875 -0.015625 C14.17448646 -0.01298164 15.5560021 -0.00785647 16.9375 0 C18.18982422 0.00451172 19.44214844 0.00902344 20.73242188 0.01367188 C23.96875 0.53125 23.96875 0.53125 26.40820312 2.06445312 C27.96875 4.53125 27.96875 4.53125 27.96875 12.53125 C15.09875 12.53125 2.22875 12.53125 -11.03125 12.53125 C-11.03125 4.53125 -11.03125 4.53125 -9.47070312 2.06445312 C-6.18336061 -0.00165086 -3.87179294 0.01394882 0 0 Z " fill="#848B95" transform="translate(52.03125,4.46875)"/>
<path d="M0 0 C10.23 0 20.46 0 31 0 C31 10.23 31 20.46 31 31 C20.77 31 10.54 31 0 31 C0 20.77 0 10.54 0 0 Z M4 4 C4 11.59 4 19.18 4 27 C11.59 27 19.18 27 27 27 C27 19.41 27 11.82 27 4 C19.41 4 11.82 4 4 4 Z " fill="#0A0A0B" transform="translate(45,25)"/>
<path d="M0 0 C1.64574566 -0.02688151 3.29161413 -0.04634123 4.9375 -0.0625 C5.85402344 -0.07410156 6.77054687 -0.08570313 7.71484375 -0.09765625 C10 0 10 0 11 1 C11.08713831 2.70772358 11.10700007 4.41898649 11.09765625 6.12890625 C11.09443359 7.16337891 11.09121094 8.19785156 11.08789062 9.26367188 C11.07951172 10.35228516 11.07113281 11.44089844 11.0625 12.5625 C11.05798828 13.65498047 11.05347656 14.74746094 11.04882812 15.87304688 C11.03699826 18.58208495 11.02051543 21.29101599 11 24 C8.69 24 6.38 24 4 24 C4 24.99 4 25.98 4 27 C6.31 27 8.62 27 11 27 C11 28.32 11 29.64 11 31 C9.18757948 31.02687279 7.37504767 31.04633715 5.5625 31.0625 C4.55316406 31.07410156 3.54382813 31.08570312 2.50390625 31.09765625 C0 31 0 31 -1 30 C-1.08700342 28.36527118 -1.10701063 26.72685945 -1.09765625 25.08984375 C-1.09443359 24.10048828 -1.09121094 23.11113281 -1.08789062 22.09179688 C-1.07951172 21.05087891 -1.07113281 20.00996094 -1.0625 18.9375 C-1.05798828 17.89271484 -1.05347656 16.84792969 -1.04882812 15.77148438 C-1.03699913 13.1809334 -1.02051689 10.59049441 -1 8 C1.64 8 4.28 8 7 8 C7 6.68 7 5.36 7 4 C4.36 4 1.72 4 -1 4 C-0.67 2.68 -0.34 1.36 0 0 Z " fill="#9FA6B1" transform="translate(104,60)"/>
<path d="M0 0 C4.43076522 4.20987663 7.61029001 8.66174008 8.625 14.75 C8 18 8 18 5.9375 20.5 C2.10621033 22.45640324 0.1000774 22.13891039 -4 21 C-5.9375 19.875 -5.9375 19.875 -7 18 C-8.14416473 12.5080093 -6.47959101 9.7490227 -3.5 5.0625 C-2.3483435 3.36472067 -1.18640653 1.67368064 0 0 Z " fill="#64CDEA" transform="translate(60,97)"/>
<path d="M0 0 C2.4375 1.5625 2.4375 1.5625 4 4 C4.56288002 7.94016013 4.60396028 10.05782196 2.4375 13.4375 C-0.94217804 15.60396028 -3.05983987 15.56288002 -7 15 C-9.4375 13.4375 -9.4375 13.4375 -11 11 C-11.56288002 7.05983987 -11.60396028 4.94217804 -9.4375 1.5625 C-6.05782196 -0.60396028 -3.94016013 -0.56288002 0 0 Z " fill="#0E0D09" transform="translate(64,33)"/>
<path d="M0 0 C0.99 0 1.98 0 3 0 C3 10.23 3 20.46 3 31 C1.68 31 0.36 31 -1 31 C-1.02465622 26.74585377 -1.04283899 22.49174502 -1.05493164 18.23754883 C-1.05997101 16.78929927 -1.06680253 15.34105483 -1.07543945 13.89282227 C-1.08752247 11.81525412 -1.09323211 9.73775303 -1.09765625 7.66015625 C-1.10289307 6.40855713 -1.10812988 5.15695801 -1.11352539 3.86743164 C-1 1 -1 1 0 0 Z " fill="#9EA6B0" transform="translate(7,60)"/>
<path d="M0 0 C0.99 0 1.98 0 3 0 C3 10.23 3 20.46 3 31 C2.01 31 1.02 31 0 31 C0 20.77 0 10.54 0 0 Z " fill="#A9B1BC" transform="translate(14,60)"/>
<path d="M0 0 C6.27 0 12.54 0 19 0 C19 0.99 19 1.98 19 3 C12.73 3 6.46 3 0 3 C0 2.01 0 1.02 0 0 Z " fill="#AAB2BD" transform="translate(100,41)"/>
<path d="M0 0 C1.32 0 2.64 0 4 0 C4 2.64 4 5.28 4 8 C2.68 8 1.36 8 0 8 C0 5.36 0 2.72 0 0 Z " fill="#C6C8CC" transform="translate(107,48)"/>
<path d="M0 0 C2.5 0.125 2.5 0.125 3.5 1.125 C3.54063832 2.79117115 3.542721 4.45888095 3.5 6.125 C3.17 5.465 2.84 4.805 2.5 4.125 C0.85 4.125 -0.8 4.125 -2.5 4.125 C-2.83 4.785 -3.16 5.445 -3.5 6.125 C-3.542721 4.45888095 -3.54063832 2.79117115 -3.5 1.125 C-2.5 0.125 -2.5 0.125 0 0 Z " fill="#DFBE63" transform="translate(60.5,36.875)"/>
<path d="M0 0 C2.31 0 4.62 0 7 0 C7 1.32 7 2.64 7 4 C4.69 4 2.38 4 0 4 C0 2.68 0 1.36 0 0 Z " fill="#09090A" transform="translate(57,68)"/>
<path d="M0 0 C2.31 0 4.62 0 7 0 C7 1.32 7 2.64 7 4 C4.69 4 2.38 4 0 4 C0 2.68 0 1.36 0 0 Z " fill="#090A0A" transform="translate(57,9)"/>
</svg>
